g matrix_body
v -0.002028 0.001567135 -0.001523064
v 0.0006190001 0.001567135 -0.001523064
v 0.0006190001 0.001567 0.001547061
v -0.002028 0.001567 0.001547061
v -0.002028 -0.001509864 -0.00152312
v -0.002028 -0.00151 0.001547005
v 0.0006190001 -0.00151 0.001547005
v 0.0006190001 -0.001509864 -0.00152312
v -0.002028 0.001567135 -0.001523064
v -0.002028 -0.001509864 -0.00152312
v 0.0006190001 -0.001509864 -0.00152312
v 0.0006190001 0.001567135 -0.001523064
v 0.0006190001 0.001567 0.001547061
v 0.0006190001 -0.00151 0.001547005
v -0.002028 -0.00151 0.001547005
v -0.002028 0.001567 0.001547061
v -0.002028 0.001760888 0.001992046
v -0.002677 0.001760888 0.001992046
v -0.002677 0.001761111 -0.001967954
v -0.002028 0.001761112 -0.001967954
v -0.002028 -0.001703889 -0.001968046
v -0.002677 -0.001703889 -0.001968047
v -0.002677 -0.001704112 0.001991954
v -0.002028 -0.001704112 0.001991954
v -0.002028 0.001761112 -0.001967954
v -0.002677 0.001761111 -0.001967954
v -0.002677 -0.001703889 -0.001968047
v -0.002028 -0.001703889 -0.001968046
v -0.002028 -0.001704112 0.001991954
v -0.002677 -0.001704112 0.001991954
v -0.002677 0.001760888 0.001992046
v -0.002028 0.001760888 0.001992046
v 0.0006190001 2.8E-05 -0.000865
v 0.000492 -0.000143 -0.000847
v 0.000492 2.8E-05 -0.000865
v 0.0006190001 -0.000143 -0.000847
v 0.000492 -0.000308 -0.000798
v 0.0006190001 -0.000308 -0.000798
v 0.000492 -0.00046 -0.000718
v 0.0006190001 -0.00046 -0.000718
v 0.000492 -0.000593 -0.0006099999
v 0.0006190001 -0.000593 -0.0006099999
v 0.000492 -0.000701 -0.000477
v 0.0006190001 -0.000701 -0.000477
v 0.000492 -0.000781 -0.000324
v 0.0006190001 -0.000781 -0.000324
v 0.000492 -0.000831 -0.000159
v 0.0006190001 -0.000831 -0.000159
v 0.000492 -0.0008479999 1.200001E-05
v 0.0006190001 -0.0008479999 1.200001E-05
v 0.000492 -0.000831 0.000183
v 0.0006190001 -0.000831 0.000183
v 0.000492 -0.000781 0.000348
v 0.0006190001 -0.000781 0.000348
v 0.000492 -0.000701 0.000501
v 0.0006190001 -0.000701 0.000501
v 0.000492 -0.000593 0.000634
v 0.0006190001 -0.000593 0.000634
v 0.000492 -0.00046 0.000741
v 0.0006190001 -0.00046 0.000741
v 0.000492 -0.000308 0.000821
v 0.0006190001 -0.000308 0.000821
v 0.000492 -0.000143 0.0008710001
v 0.0006190001 -0.000143 0.0008710001
v 0.000492 2.8E-05 0.000889
v 0.0006190001 2.8E-05 0.000889
v 0.000492 0.0002 0.000871
v 0.0006190001 0.0002 0.000871
v 0.000492 0.000365 0.000821
v 0.0006190001 0.000365 0.000821
v 0.000492 0.000517 0.000741
v 0.0006190001 0.000517 0.000741
v 0.000492 0.0006499999 0.000634
v 0.0006190001 0.0006499999 0.000634
v 0.000492 0.000758 0.000501
v 0.0006190001 0.000758 0.000501
v 0.000492 0.000838 0.000348
v 0.0006190001 0.000838 0.000348
v 0.000492 0.000888 0.000183
v 0.0006190001 0.000888 0.000183
v 0.000492 0.000905 1.200001E-05
v 0.0006190001 0.000905 1.200001E-05
v 0.000492 0.000888 -0.000159
v 0.0006190001 0.000888 -0.000159
v 0.000492 0.000838 -0.000324
v 0.0006190001 0.000838 -0.000324
v 0.000492 0.000758 -0.000477
v 0.0006190001 0.000758 -0.000477
v 0.000492 0.0006499999 -0.0006099999
v 0.0006190001 0.0006499999 -0.0006099999
v 0.000492 0.0005169999 -0.000718
v 0.0006190001 0.0005169999 -0.000718
v 0.000492 0.000365 -0.000798
v 0.0006190001 0.000365 -0.000798
v 0.0006190001 0.0002 -0.000847
v 0.000492 0.0002 -0.000847
v 0.000492 2.8E-05 -0.000865
v 0.0006190001 2.8E-05 -0.000865
v 0.000492 -0.000308 -0.000798
v 0.000492 2.8E-05 -0.000865
v 0.000492 -0.000143 -0.000847
v 0.000492 0.0002 -0.000847
v 0.000492 0.000365 -0.000798
v 0.000492 -0.00046 -0.000718
v 0.000492 0.0005169999 -0.000718
v 0.000492 -0.000593 -0.0006099999
v 0.000492 0.0006499999 -0.0006099999
v 0.000492 -0.000701 -0.000477
v 0.000492 0.000758 -0.000477
v 0.000492 -0.000781 -0.000324
v 0.000492 0.000838 -0.000324
v 0.000492 -0.000831 -0.000159
v 0.000492 0.000888 -0.000159
v 0.000492 -0.0008479999 1.200001E-05
v 0.000492 0.000905 1.200001E-05
v 0.000492 -0.000831 0.000183
v 0.000492 0.000888 0.000183
v 0.000492 -0.000781 0.000348
v 0.000492 0.000838 0.000348
v 0.000492 -0.000701 0.000501
v 0.000492 0.000758 0.000501
v 0.000492 -0.000593 0.000634
v 0.000492 0.0006499999 0.000634
v 0.000492 -0.00046 0.000741
v 0.000492 0.000517 0.000741
v 0.000492 -0.000308 0.000821
v 0.000492 0.000365 0.000821
v 0.000492 -0.000143 0.0008710001
v 0.000492 2.8E-05 0.000889
v 0.000492 0.0002 0.000871
v -0.002677 -0.001703889 -0.001968047
v -0.002677 0.001761111 -0.001967954
v -0.002677 0.001760888 0.001992046
v -0.002677 -0.001704112 0.001991954
v 0.0006190001 0.001567 0.001547061
v 0.0006190001 0.0006499999 0.000634
v 0.0006190001 0.000517 0.000741
v 0.0006190001 0.000758 0.000501
v 0.0006190001 0.000365 0.000821
v 0.0006190001 0.000838 0.000348
v 0.0006190001 0.0002 0.000871
v 0.0006190001 0.000888 0.000183
v 0.0006190001 2.8E-05 0.000889
v 0.0006190001 0.000905 1.200001E-05
v 0.0006190001 -0.00151 0.001547005
v 0.0006190001 -0.000143 0.0008710001
v 0.0006190001 -0.000308 0.000821
v 0.0006190001 0.001567135 -0.001523064
v 0.0006190001 0.000888 -0.000159
v 0.0006190001 0.000838 -0.000324
v 0.0006190001 -0.00046 0.000741
v 0.0006190001 0.000758 -0.000477
v 0.0006190001 -0.000593 0.000634
v 0.0006190001 0.0006499999 -0.0006099999
v 0.0006190001 -0.000701 0.000501
v 0.0006190001 0.0005169999 -0.000718
v 0.0006190001 -0.000781 0.000348
v 0.0006190001 -0.000831 0.000183
v 0.0006190001 -0.0008479999 1.200001E-05
v 0.0006190001 -0.001509864 -0.00152312
v 0.0006190001 -0.000831 -0.000159
v 0.0006190001 -0.000781 -0.000324
v 0.0006190001 0.000365 -0.000798
v 0.0006190001 0.0002 -0.000847
v 0.0006190001 2.8E-05 -0.000865
v 0.0006190001 -0.000701 -0.000477
v 0.0006190001 -0.000143 -0.000847
v 0.0006190001 -0.000593 -0.0006099999
v 0.0006190001 -0.000308 -0.000798
v 0.0006190001 -0.00046 -0.000718
v -0.002028 0.001567 0.001547061
v -0.002028 0.001760888 0.001992046
v -0.002028 0.001761112 -0.001967954
v -0.002028 0.001567135 -0.001523064
v -0.002028 -0.00151 0.001547005
v -0.002028 -0.001703889 -0.001968046
v -0.002028 -0.001704112 0.001991954
v -0.002028 -0.001509864 -0.00152312
vt 0.5351563 0.3811035
vt 0.5351563 0.4968262
vt 0.6694336 0.4968262
vt 0.6694336 0.3811035
vt 0.8183594 0.3764648
vt 0.684082 0.3764648
vt 0.684082 0.4924316
vt 0.8183594 0.4924316
vt 0.7329102 0.5395508
vt 0.5981445 0.5395508
vt 0.5981445 0.6552734
vt 0.7329102 0.6552734
vt 0.8867188 0.5395508
vt 0.7519531 0.5395508
vt 0.7519531 0.6552734
vt 0.8867188 0.6552734
vt 0.7441406 0.3552246
vt 0.7441406 0.3266602
vt 0.5712891 0.3266602
vt 0.5712891 0.3552246
vt 0.6450195 0.8168945
vt 0.6450195 0.7885742
vt 0.4716797 0.7885742
vt 0.4716797 0.8168945
vt 0.6230469 0.7080078
vt 0.6230469 0.6796875
vt 0.4716797 0.6796875
vt 0.4716797 0.7080078
vt 0.9467773 0.9853516
vt 0.9750977 0.9853516
vt 0.9750977 0.8334961
vt 0.9467773 0.8334961
vt 0.5576172 0.1604004
vt 0.5649414 0.1547852
vt 0.5576172 0.1547852
vt 0.5649414 0.1604004
vt 0.5727539 0.1547852
vt 0.5727539 0.1604004
vt 0.5800781 0.1547852
vt 0.5800781 0.1604004
vt 0.5874023 0.1547852
vt 0.5874023 0.1604004
vt 0.5952148 0.1547852
vt 0.5952148 0.1604004
vt 0.6025391 0.1547852
vt 0.6025391 0.1604004
vt 0.6103516 0.1547852
vt 0.6103516 0.1604004
vt 0.6176758 0.1547852
vt 0.6176758 0.1604004
vt 0.6254883 0.1547852
vt 0.6254883 0.1604004
vt 0.6328125 0.1547852
vt 0.6328125 0.1604004
vt 0.6401367 0.1547852
vt 0.6401367 0.1604004
vt 0.6479492 0.1547852
vt 0.6479492 0.1604004
vt 0.6552734 0.1547852
vt 0.6552734 0.1604004
vt 0.6625977 0.1547852
vt 0.6625977 0.1604004
vt 0.6704102 0.1547852
vt 0.6704102 0.1604004
vt 0.6777344 0.1547852
vt 0.6777344 0.1604004
vt 0.6855469 0.1547852
vt 0.6855469 0.1604004
vt 0.6928711 0.1547852
vt 0.6928711 0.1604004
vt 0.7006836 0.1547852
vt 0.7006836 0.1604004
vt 0.7080078 0.1547852
vt 0.7080078 0.1604004
vt 0.715332 0.1547852
vt 0.715332 0.1604004
vt 0.7231445 0.1547852
vt 0.7231445 0.1604004
vt 0.7304688 0.1547852
vt 0.7304688 0.1604004
vt 0.7382813 0.1547852
vt 0.7382813 0.1604004
vt 0.7456055 0.1547852
vt 0.7456055 0.1604004
vt 0.7529297 0.1547852
vt 0.7529297 0.1604004
vt 0.7607422 0.1547852
vt 0.7607422 0.1604004
vt 0.7680664 0.1547852
vt 0.7680664 0.1604004
vt 0.7758789 0.1547852
vt 0.7758789 0.1604004
vt 0.7832031 0.1547852
vt 0.7832031 0.1604004
vt 0.7905273 0.1604004
vt 0.7905273 0.1547852
vt 0.7983398 0.1547852
vt 0.7983398 0.1604004
vt 0.3352051 0.7128906
vt 0.3500977 0.7114258
vt 0.3425293 0.7114258
vt 0.3574219 0.7128906
vt 0.364502 0.7158203
vt 0.328125 0.7158203
vt 0.3706055 0.7202148
vt 0.3217773 0.7197266
vt 0.3759766 0.7255859
vt 0.3166504 0.7250977
vt 0.380127 0.7319336
vt 0.3122559 0.7314453
vt 0.3828125 0.7387695
vt 0.3093262 0.7382813
vt 0.3842773 0.7460938
vt 0.3078613 0.7456055
vt 0.3842773 0.753418
vt 0.3078613 0.7529297
vt 0.3825684 0.7612305
vt 0.3093262 0.7607422
vt 0.3796387 0.7680664
vt 0.3120117 0.7675781
vt 0.3754883 0.7744141
vt 0.3161621 0.7739258
vt 0.3703613 0.7792969
vt 0.3215332 0.7792969
vt 0.3640137 0.7836914
vt 0.3276367 0.7832031
vt 0.3569336 0.7861328
vt 0.3347168 0.7861328
vt 0.342041 0.7875977
vt 0.3496094 0.7875977
vt 0.6674805 0.9853516
vt 0.6674805 0.8334961
vt 0.4941406 0.8334961
vt 0.4941406 0.9853516
vt 0.8334961 0.4206543
vt 0.8735352 0.3806152
vt 0.8686523 0.3747559
vt 0.8793945 0.3852539
vt 0.8652344 0.3681641
vt 0.8862305 0.3886719
vt 0.8632813 0.3608398
vt 0.8930664 0.3908691
vt 0.8623047 0.3532715
vt 0.9008789 0.3916016
vt 0.8334961 0.2861328
vt 0.8632813 0.3459473
vt 0.8652344 0.338623
vt 0.9677734 0.4206543
vt 0.9082031 0.3908691
vt 0.9155273 0.3886719
vt 0.8686523 0.3320313
vt 0.9223633 0.3852539
vt 0.8735352 0.3261719
vt 0.9277344 0.3806152
vt 0.8793945 0.3215332
vt 0.9326172 0.3747559
vt 0.8862305 0.3178711
vt 0.8930664 0.3156738
vt 0.9008789 0.3149414
vt 0.9677734 0.2861328
vt 0.9082031 0.3156738
vt 0.9155273 0.3178711
vt 0.9360352 0.3681641
vt 0.9384766 0.3608398
vt 0.9389648 0.3532715
vt 0.9223633 0.3215332
vt 0.9384766 0.3459473
vt 0.9277344 0.3261719
vt 0.9360352 0.338623
vt 0.9326172 0.3320313
vt 0.4306641 0.6928711
vt 0.4501953 0.684082
vt 0.2770996 0.684082
vt 0.2963867 0.6928711
vt 0.4306641 0.8271484
vt 0.2770996 0.8359375
vt 0.4501953 0.8359375
vt 0.2963867 0.8271484
vn 0 1 4.398823E-05
vn 0 1 4.398823E-05
vn 0 1 4.398823E-05
vn 0 1 4.398823E-05
vn 0 -1 -4.404783E-05
vn 0 -1 -4.404783E-05
vn 0 -1 -4.404783E-05
vn 0 -1 -4.404783E-05
vn 0 1.817942E-05 -1
vn 0 1.817942E-05 -1
vn 0 1.817942E-05 -1
vn 0 1.817942E-05 -1
vn 0 -1.811981E-05 1
vn 0 -1.811981E-05 1
vn 0 -1.811981E-05 1
vn 0 -1.811981E-05 1
vn -5.960464E-07 1 5.632639E-05
vn -5.960464E-07 1 5.632639E-05
vn -5.960464E-07 1 5.632639E-05
vn -5.960464E-07 1 5.632639E-05
vn 7.152557E-07 -1 -5.638599E-05
vn 7.152557E-07 -1 -5.638599E-05
vn 7.152557E-07 -1 -5.638599E-05
vn 7.152557E-07 -1 -5.638599E-05
vn 7.152557E-07 2.676249E-05 -1
vn 7.152557E-07 2.676249E-05 -1
vn 7.152557E-07 2.676249E-05 -1
vn 7.152557E-07 2.676249E-05 -1
vn -7.152557E-07 -2.658367E-05 1
vn -7.152557E-07 -2.658367E-05 1
vn -7.152557E-07 -2.658367E-05 1
vn -7.152557E-07 -2.658367E-05 1
vn 0 0.0003025532 1
vn 0 0.1955566 0.9804688
vn 0 0.0003025532 1
vn 0 0.1955566 0.9804688
vn 0 0.3769531 0.9262695
vn 0 0.3769531 0.9262695
vn 0 0.5507813 0.8344727
vn 0 0.5507813 0.8344727
vn 0 0.7070313 0.7070313
vn 0 0.7070313 0.7070313
vn 0 0.8354492 0.5498047
vn 0 0.8354492 0.5498047
vn 0 0.9257813 0.378418
vn 0 0.9257813 0.378418
vn 0 0.980957 0.1954346
vn 0 0.980957 0.1954346
vn 0 1 0
vn 0 1 0
vn 0 0.980957 -0.1954346
vn 0 0.980957 -0.1954346
vn 0 0.9257813 -0.378418
vn 0 0.9257813 -0.378418
vn 0 0.8354492 -0.5498047
vn 0 0.8354492 -0.5498047
vn 0 0.7055664 -0.7084961
vn 0 0.7055664 -0.7084961
vn 0 0.5488281 -0.8359375
vn 0 0.5488281 -0.8359375
vn 0 0.3796387 -0.925293
vn 0 0.3796387 -0.925293
vn 0 0.1982422 -0.9799805
vn 0 0.1982422 -0.9799805
vn 0 0.0003025532 -1
vn 0 0.0003025532 -1
vn 0 -0.197998 -0.9799805
vn 0 -0.197998 -0.9799805
vn 0 -0.3796387 -0.925293
vn 0 -0.3796387 -0.925293
vn 0 -0.5488281 -0.8359375
vn 0 -0.5488281 -0.8359375
vn 0 -0.7055664 -0.7084961
vn 0 -0.7055664 -0.7084961
vn 0 -0.8354492 -0.5498047
vn 0 -0.8354492 -0.5498047
vn 0 -0.9257813 -0.378418
vn 0 -0.9257813 -0.378418
vn 0 -0.980957 -0.1954346
vn 0 -0.980957 -0.1954346
vn 0 -1 0
vn 0 -1 0
vn 0 -0.980957 0.1954346
vn 0 -0.980957 0.1954346
vn 0 -0.9257813 0.378418
vn 0 -0.9257813 0.378418
vn 0 -0.8354492 0.5498047
vn 0 -0.8354492 0.5498047
vn 0 -0.7070313 0.7070313
vn 0 -0.7070313 0.7070313
vn 0 -0.5507813 0.8344727
vn 0 -0.5507813 0.8344727
vn 0 -0.3769531 0.9262695
vn 0 -0.3769531 0.9262695
vn 0 -0.1951904 0.980957
vn 0 -0.1951904 0.980957
vn 0 0.0003025532 1
vn 0 0.0003025532 1
vn 1 0 0
vn 1 0 0
vn 1 0 0
vn 1 0 0
vn 1 0 0
vn 1 0 0
vn 1 0 0
vn 1 0 0
vn 1 0 0
vn 1 0 0
vn 1 0 0
vn 1 0 0
vn 1 0 0
vn 1 0 0
vn 1 0 0
vn 1 0 0
vn 1 0 0
vn 1 0 0
vn 1 0 0
vn 1 0 0
vn 1 0 0
vn 1 0 0
vn 1 0 0
vn 1 0 0
vn 1 0 0
vn 1 0 0
vn 1 0 0
vn 1 0 0
vn 1 0 0
vn 1 0 0
vn 1 0 0
vn 1 0 0
vn -1 0 0
vn -1 0 0
vn -1 0 0
vn -1 0 0
vn 1 0 0
vn 1 0 0
vn 1 0 0
vn 1 0 0
vn 1 0 0
vn 1 0 0
vn 1 0 0
vn 1 0 0
vn 1 0 0
vn 1 0 0
vn 1 0 0
vn 1 0 0
vn 1 0 0
vn 1 0 0
vn 1 0 0
vn 1 0 0
vn 1 0 0
vn 1 0 0
vn 1 0 0
vn 1 0 0
vn 1 0 0
vn 1 0 0
vn 1 0 0
vn 1 0 0
vn 1 0 0
vn 1 0 0
vn 1 0 0
vn 1 0 0
vn 1 0 0
vn 1 0 0
vn 1 0 0
vn 1 0 0
vn 1 0 0
vn 1 0 0
vn 1 0 0
vn 1 0 0
vn 1 0 0
vn 1 0 0
vn 1 0 0
vn 1 0 0
vn 1 0 0
vn 1 0 0
vn 1 0 0
vn 1 0 0
g matrix_body_0
f 3/3/3 2/2/2 1/1/1
f 4/4/4 3/3/3 1/1/1
f 7/7/7 6/6/6 5/5/5
f 8/8/8 7/7/7 5/5/5
f 11/11/11 10/10/10 9/9/9
f 12/12/12 11/11/11 9/9/9
f 15/15/15 14/14/14 13/13/13
f 16/16/16 15/15/15 13/13/13
f 19/19/19 18/18/18 17/17/17
f 20/20/20 19/19/19 17/17/17
f 23/23/23 22/22/22 21/21/21
f 24/24/24 23/23/23 21/21/21
f 27/27/27 26/26/26 25/25/25
f 28/28/28 27/27/27 25/25/25
f 31/31/31 30/30/30 29/29/29
f 32/32/32 31/31/31 29/29/29
f 35/35/35 34/34/34 33/33/33
f 34/34/34 36/36/36 33/33/33
f 34/34/34 37/37/37 36/36/36
f 37/37/37 38/38/38 36/36/36
f 37/37/37 39/39/39 38/38/38
f 39/39/39 40/40/40 38/38/38
f 39/39/39 41/41/41 40/40/40
f 41/41/41 42/42/42 40/40/40
f 41/41/41 43/43/43 42/42/42
f 43/43/43 44/44/44 42/42/42
f 43/43/43 45/45/45 44/44/44
f 45/45/45 46/46/46 44/44/44
f 45/45/45 47/47/47 46/46/46
f 47/47/47 48/48/48 46/46/46
f 47/47/47 49/49/49 48/48/48
f 49/49/49 50/50/50 48/48/48
f 49/49/49 51/51/51 50/50/50
f 51/51/51 52/52/52 50/50/50
f 51/51/51 53/53/53 52/52/52
f 53/53/53 54/54/54 52/52/52
f 53/53/53 55/55/55 54/54/54
f 55/55/55 56/56/56 54/54/54
f 55/55/55 57/57/57 56/56/56
f 57/57/57 58/58/58 56/56/56
f 57/57/57 59/59/59 58/58/58
f 59/59/59 60/60/60 58/58/58
f 59/59/59 61/61/61 60/60/60
f 61/61/61 62/62/62 60/60/60
f 61/61/61 63/63/63 62/62/62
f 63/63/63 64/64/64 62/62/62
f 63/63/63 65/65/65 64/64/64
f 65/65/65 66/66/66 64/64/64
f 65/65/65 67/67/67 66/66/66
f 67/67/67 68/68/68 66/66/66
f 67/67/67 69/69/69 68/68/68
f 69/69/69 70/70/70 68/68/68
f 69/69/69 71/71/71 70/70/70
f 71/71/71 72/72/72 70/70/70
f 71/71/71 73/73/73 72/72/72
f 73/73/73 74/74/74 72/72/72
f 73/73/73 75/75/75 74/74/74
f 75/75/75 76/76/76 74/74/74
f 75/75/75 77/77/77 76/76/76
f 77/77/77 78/78/78 76/76/76
f 77/77/77 79/79/79 78/78/78
f 79/79/79 80/80/80 78/78/78
f 79/79/79 81/81/81 80/80/80
f 81/81/81 82/82/82 80/80/80
f 81/81/81 83/83/83 82/82/82
f 83/83/83 84/84/84 82/82/82
f 83/83/83 85/85/85 84/84/84
f 85/85/85 86/86/86 84/84/84
f 85/85/85 87/87/87 86/86/86
f 87/87/87 88/88/88 86/86/86
f 87/87/87 89/89/89 88/88/88
f 89/89/89 90/90/90 88/88/88
f 89/89/89 91/91/91 90/90/90
f 91/91/91 92/92/92 90/90/90
f 91/91/91 93/93/93 92/92/92
f 93/93/93 94/94/94 92/92/92
f 95/95/95 94/94/94 93/93/93
f 96/96/96 95/95/95 93/93/93
f 96/96/96 97/97/97 95/95/95
f 97/97/97 98/98/98 95/95/95
f 101/101/101 100/100/100 99/99/99
f 100/100/100 102/102/102 99/99/99
f 99/99/99 102/102/102 103/103/103
f 104/104/104 99/99/99 103/103/103
f 104/104/104 103/103/103 105/105/105
f 106/106/106 104/104/104 105/105/105
f 106/106/106 105/105/105 107/107/107
f 108/108/108 106/106/106 107/107/107
f 108/108/108 107/107/107 109/109/109
f 110/110/110 108/108/108 109/109/109
f 110/110/110 109/109/109 111/111/111
f 112/112/112 110/110/110 111/111/111
f 112/112/112 111/111/111 113/113/113
f 114/114/114 112/112/112 113/113/113
f 114/114/114 113/113/113 115/115/115
f 116/116/116 114/114/114 115/115/115
f 116/116/116 115/115/115 117/117/117
f 118/118/118 116/116/116 117/117/117
f 118/118/118 117/117/117 119/119/119
f 120/120/120 118/118/118 119/119/119
f 120/120/120 119/119/119 121/121/121
f 122/122/122 120/120/120 121/121/121
f 122/122/122 121/121/121 123/123/123
f 124/124/124 122/122/122 123/123/123
f 124/124/124 123/123/123 125/125/125
f 126/126/126 124/124/124 125/125/125
f 126/126/126 125/125/125 127/127/127
f 128/128/128 126/126/126 127/127/127
f 129/129/129 128/128/128 127/127/127
f 130/130/130 129/129/129 127/127/127
f 133/133/133 132/132/132 131/131/131
f 134/134/134 133/133/133 131/131/131
f 137/137/137 136/136/136 135/135/135
f 136/136/136 138/138/138 135/135/135
f 139/139/139 137/137/137 135/135/135
f 138/138/138 140/140/140 135/135/135
f 141/141/141 139/139/139 135/135/135
f 140/140/140 142/142/142 135/135/135
f 143/143/143 141/141/141 135/135/135
f 142/142/142 144/144/144 135/135/135
f 145/145/145 143/143/143 135/135/135
f 146/146/146 143/143/143 145/145/145
f 147/147/147 146/146/146 145/145/145
f 135/135/135 144/144/144 148/148/148
f 144/144/144 149/149/149 148/148/148
f 149/149/149 150/150/150 148/148/148
f 151/151/151 147/147/147 145/145/145
f 150/150/150 152/152/152 148/148/148
f 153/153/153 151/151/151 145/145/145
f 152/152/152 154/154/154 148/148/148
f 155/155/155 153/153/153 145/145/145
f 154/154/154 156/156/156 148/148/148
f 157/157/157 155/155/155 145/145/145
f 158/158/158 157/157/157 145/145/145
f 159/159/159 158/158/158 145/145/145
f 160/160/160 159/159/159 145/145/145
f 161/161/161 159/159/159 160/160/160
f 162/162/162 161/161/161 160/160/160
f 156/156/156 163/163/163 148/148/148
f 163/163/163 164/164/164 148/148/148
f 164/164/164 165/165/165 148/148/148
f 165/165/165 160/160/160 148/148/148
f 166/166/166 162/162/162 160/160/160
f 167/167/167 160/160/160 165/165/165
f 168/168/168 166/166/166 160/160/160
f 169/169/169 160/160/160 167/167/167
f 168/168/168 160/160/160 170/170/170
f 170/170/170 160/160/160 169/169/169
f 173/173/173 172/172/172 171/171/171
f 174/174/174 173/173/173 171/171/171
f 171/171/171 172/172/172 175/175/175
f 176/176/176 173/173/173 174/174/174
f 172/172/172 177/177/177 175/175/175
f 178/178/178 176/176/176 174/174/174
f 175/175/175 177/177/177 178/178/178
f 177/177/177 176/176/176 178/178/178
