g RESISTOR_2
v -0.002314842 4.487336E-05 -0.003203348
v -0.002346999 1.299879E-05 -0.003233501
v -0.002819 1.299899E-05 -0.003233501
v -0.002851157 4.487358E-05 -0.003203348
v -0.002315989 0.000126249 -0.003207355
v -0.002850011 0.0001262493 -0.003207355
v -0.002331169 0.0005109988 -0.003219705
v -0.00283483 0.0005109989 -0.003219705
v -0.00285001 0.0008957486 -0.003207355
v -0.002315989 0.0008957485 -0.003207355
v -0.002851157 0.0009771242 -0.003203348
v -0.002314842 0.0009771242 -0.003203348
v -0.002819 0.001008999 -0.0032335
v -0.002346999 0.001008999 -0.0032335
v -0.002314842 4.487358E-05 -0.003740653
v -0.002347 1.299959E-05 -0.003711501
v -0.002346999 1.299879E-05 -0.003233501
v -0.002314842 4.487336E-05 -0.003203348
v -0.002315989 0.0001262493 -0.003736646
v -0.002315989 0.000126249 -0.003207355
v -0.002331169 0.000510999 -0.003724296
v -0.002331169 0.0005109988 -0.003219705
v -0.002315989 0.0008957485 -0.003207355
v -0.002315989 0.0008957486 -0.003736646
v -0.002314842 0.0009771242 -0.003203348
v -0.002314842 0.0009771244 -0.003740653
v -0.002346999 0.001008999 -0.0032335
v -0.002346999 0.001008998 -0.0037115
v -0.002851157 4.487358E-05 -0.003203348
v -0.002819 1.299899E-05 -0.003233501
v -0.002819 1.299979E-05 -0.003711501
v -0.002851158 4.48738E-05 -0.003740653
v -0.002850011 0.0001262493 -0.003207355
v -0.002850011 0.0001262495 -0.003736646
v -0.00283483 0.0005109989 -0.003219705
v -0.00283483 0.0005109991 -0.003724296
v -0.002850011 0.0008957488 -0.003736646
v -0.00285001 0.0008957486 -0.003207355
v -0.002851158 0.0009771244 -0.003740653
v -0.002851157 0.0009771242 -0.003203348
v -0.002819 0.001008998 -0.0037115
v -0.002819 0.001008999 -0.0032335
v -0.002851158 4.48738E-05 -0.003740653
v -0.002819 1.299979E-05 -0.003711501
v -0.002347 1.299959E-05 -0.003711501
v -0.002314842 4.487358E-05 -0.003740653
v -0.002850011 0.0001262495 -0.003736646
v -0.002315989 0.0001262493 -0.003736646
v -0.00283483 0.0005109991 -0.003724296
v -0.002331169 0.000510999 -0.003724296
v -0.002315989 0.0008957486 -0.003736646
v -0.002850011 0.0008957488 -0.003736646
v -0.002314842 0.0009771244 -0.003740653
v -0.002851158 0.0009771244 -0.003740653
v -0.002346999 0.001008998 -0.0037115
v -0.002819 0.001008998 -0.0037115
v -0.002429244 -1.560296E-06 -0.003317862
v -0.002346999 1.299879E-05 -0.003233501
v -0.002347 1.299959E-05 -0.003711501
v -0.002429244 -1.560151E-06 -0.003626139
v -0.002819 1.299979E-05 -0.003711501
v -0.002736756 -1.559932E-06 -0.003626139
v -0.002819 1.299899E-05 -0.003233501
v -0.002736756 -1.560077E-06 -0.003317862
v -0.002429243 0.001023558 -0.003317862
v -0.002429244 0.001023558 -0.003626138
v -0.002346999 0.001008998 -0.0037115
v -0.002819 0.001008998 -0.0037115
v -0.002346999 0.001008999 -0.0032335
v -0.002736756 0.001023558 -0.003626139
v -0.002819 0.001008999 -0.0032335
v -0.002736755 0.001023558 -0.003317862
vt 0.5957031 0.3525391
vt 0.5898438 0.3447266
vt 0.5058594 0.3447266
vt 0.5 0.3525391
vt 0.5952148 0.3671875
vt 0.5004883 0.3671875
vt 0.5927734 0.4355469
vt 0.5029297 0.4355469
vt 0.5004883 0.5039063
vt 0.5952148 0.5039063
vt 0.5 0.5185547
vt 0.5957031 0.5185547
vt 0.5058594 0.5263672
vt 0.5898438 0.5263672
vt 0.7685547 0.5488281
vt 0.7636719 0.5410156
vt 0.6782227 0.5410156
vt 0.6728516 0.5488281
vt 0.7680664 0.5634766
vt 0.6738281 0.5634766
vt 0.765625 0.6318359
vt 0.6757813 0.6318359
vt 0.6738281 0.7006836
vt 0.7680664 0.7006836
vt 0.6728516 0.7148438
vt 0.7685547 0.7148438
vt 0.6782227 0.7231445
vt 0.7636719 0.7231445
vt 0.3833008 0.6264648
vt 0.3886719 0.6342773
vt 0.473877 0.6342773
vt 0.4790039 0.6264648
vt 0.3840332 0.6118164
vt 0.4782715 0.6118164
vt 0.3862305 0.543457
vt 0.4760742 0.543457
vt 0.4782715 0.4748535
vt 0.3840332 0.4748535
vt 0.4790039 0.4602051
vt 0.3833008 0.4602051
vt 0.473877 0.4521484
vt 0.3886719 0.4521484
vt 0.6796875 0.7402344
vt 0.6738281 0.7324219
vt 0.5898438 0.7324219
vt 0.5844727 0.7402344
vt 0.6796875 0.7548828
vt 0.5844727 0.7548828
vt 0.6767578 0.8232422
vt 0.5874023 0.8232422
vt 0.5844727 0.8916016
vt 0.6796875 0.8916016
vt 0.5844727 0.90625
vt 0.6796875 0.90625
vt 0.5898438 0.9140625
vt 0.6738281 0.9140625
vt 0.3220215 0.9335938
vt 0.3366699 0.9487305
vt 0.3366699 0.8632813
vt 0.3220215 0.878418
vt 0.2526855 0.8632813
vt 0.267334 0.878418
vt 0.2526855 0.9487305
vt 0.267334 0.9335938
vt 0.3608398 0.9335938
vt 0.3608398 0.878418
vt 0.3459473 0.8632813
vt 0.4301758 0.8632813
vt 0.3459473 0.9487305
vt 0.4155273 0.878418
vt 0.4301758 0.9487305
vt 0.4155273 0.9335938
vn -5.364418E-07 -0.2462158 0.9692383
vn -6.556511E-07 -0.6870117 0.7265625
vn -6.556511E-07 -0.6870117 0.7265625
vn -5.364418E-07 -0.2462158 0.9692383
vn -3.576279E-07 0.04077148 0.9990234
vn -3.576279E-07 0.04077148 0.9990234
vn -3.576279E-07 -4.768372E-07 1
vn -3.576279E-07 -4.172325E-07 1
vn -3.576279E-07 -0.04077148 0.9990234
vn -3.576279E-07 -0.04077148 0.9990234
vn -3.576279E-07 0.2462158 0.9692383
vn -3.576279E-07 0.2462158 0.9692383
vn -2.980232E-07 0.6870117 0.7265625
vn -2.980232E-07 0.6870117 0.7265625
vn 0.9555664 -0.2954102 -1.072884E-06
vn 0.7041016 -0.7104492 -1.311302E-06
vn 0.7041016 -0.7104492 -1.311302E-06
vn 0.9560547 -0.2924805 -1.072884E-06
vn 0.9995117 0.02642822 -6.556511E-07
vn 0.9995117 0.02642822 -6.556511E-07
vn 1 -3.576279E-07 -5.364418E-07
vn 1 -3.576279E-07 -5.364418E-07
vn 0.9995117 -0.02642822 -6.556511E-07
vn 0.9995117 -0.02642822 -6.556511E-07
vn 0.9560547 0.2924805 -7.748604E-07
vn 0.9555664 0.2954102 -7.748604E-07
vn 0.7041016 0.7104492 -7.152557E-07
vn 0.7041016 0.7104492 -7.152557E-07
vn -0.9560547 -0.2924805 7.152557E-07
vn -0.7041016 -0.7104492 0
vn -0.7041016 -0.7104492 0
vn -0.9555664 -0.2954102 7.152557E-07
vn -0.9995117 0.02642822 9.536743E-07
vn -0.9995117 0.02642822 9.536743E-07
vn -1 3.576279E-07 7.748604E-07
vn -1 3.576279E-07 7.748604E-07
vn -0.9995117 -0.02642822 8.940697E-07
vn -0.9995117 -0.02642822 8.940697E-07
vn -0.9555664 0.2954102 9.536743E-07
vn -0.9560547 0.2924805 9.536743E-07
vn -0.7041016 0.7104492 6.556511E-07
vn -0.7041016 0.7104492 6.556511E-07
vn 1.788139E-07 -0.2390137 -0.9711914
vn -1.192093E-07 -0.6748047 -0.737793
vn -1.192093E-07 -0.6748047 -0.737793
vn 1.788139E-07 -0.2390137 -0.9711914
vn 3.576279E-07 0.04077148 -0.9990234
vn 3.576279E-07 0.04077148 -0.9990234
vn 3.576279E-07 3.576279E-07 -1
vn 3.576279E-07 3.576279E-07 -1
vn 3.576279E-07 -0.04077148 -0.9990234
vn 3.576279E-07 -0.04077148 -0.9990234
vn 2.980232E-07 0.2390137 -0.9711914
vn 2.980232E-07 0.2390137 -0.9711914
vn 2.384186E-07 0.6748047 -0.737793
vn 2.384186E-07 0.6748047 -0.737793
vn 0.06610107 -0.9956055 0.06384277
vn 0.08642578 -0.9926758 0.08703613
vn 0.08575439 -0.9926758 -0.08666992
vn 0.06628418 -0.9956055 -0.06292725
vn -0.08575439 -0.9926758 -0.08666992
vn -0.06628418 -0.9956055 -0.06292725
vn -0.08642578 -0.9926758 0.08703613
vn -0.06610107 -0.9956055 0.06384277
vn 0.06610107 0.9956055 0.06384277
vn 0.06628418 0.9956055 -0.06292725
vn 0.08575439 0.9926758 -0.08666992
vn -0.08575439 0.9926758 -0.08666992
vn 0.08642578 0.9926758 0.08703613
vn -0.06628418 0.9956055 -0.06292725
vn -0.08642578 0.9926758 0.08703613
vn -0.06610107 0.9956055 0.06384277
g RESISTOR_2_0
f 3/3/3 2/2/2 1/1/1
f 4/4/4 3/3/3 1/1/1
f 4/4/4 1/1/1 5/5/5
f 6/6/6 4/4/4 5/5/5
f 6/6/6 5/5/5 7/7/7
f 8/8/8 6/6/6 7/7/7
f 8/8/8 7/7/7 9/9/9
f 7/7/7 10/10/10 9/9/9
f 9/9/9 10/10/10 11/11/11
f 10/10/10 12/12/12 11/11/11
f 13/13/13 11/11/11 12/12/12
f 14/14/14 13/13/13 12/12/12
f 17/17/17 16/16/16 15/15/15
f 18/18/18 17/17/17 15/15/15
f 15/15/15 19/19/19 18/18/18
f 19/19/19 20/20/20 18/18/18
f 19/19/19 21/21/21 20/20/20
f 21/21/21 22/22/22 20/20/20
f 23/23/23 22/22/22 21/21/21
f 24/24/24 23/23/23 21/21/21
f 25/25/25 23/23/23 24/24/24
f 26/26/26 25/25/25 24/24/24
f 27/27/27 25/25/25 26/26/26
f 28/28/28 27/27/27 26/26/26
f 31/31/31 30/30/30 29/29/29
f 32/32/32 31/31/31 29/29/29
f 29/29/29 33/33/33 32/32/32
f 33/33/33 34/34/34 32/32/32
f 33/33/33 35/35/35 34/34/34
f 35/35/35 36/36/36 34/34/34
f 37/37/37 36/36/36 35/35/35
f 38/38/38 37/37/37 35/35/35
f 39/39/39 37/37/37 38/38/38
f 40/40/40 39/39/39 38/38/38
f 41/41/41 39/39/39 40/40/40
f 42/42/42 41/41/41 40/40/40
f 45/45/45 44/44/44 43/43/43
f 46/46/46 45/45/45 43/43/43
f 43/43/43 47/47/47 46/46/46
f 47/47/47 48/48/48 46/46/46
f 47/47/47 49/49/49 48/48/48
f 49/49/49 50/50/50 48/48/48
f 51/51/51 50/50/50 49/49/49
f 52/52/52 51/51/51 49/49/49
f 53/53/53 51/51/51 52/52/52
f 54/54/54 53/53/53 52/52/52
f 55/55/55 53/53/53 54/54/54
f 56/56/56 55/55/55 54/54/54
f 59/59/59 58/58/58 57/57/57
f 60/60/60 59/59/59 57/57/57
f 61/61/61 59/59/59 60/60/60
f 62/62/62 61/61/61 60/60/60
f 62/62/62 60/60/60 57/57/57
f 63/63/63 61/61/61 62/62/62
f 58/58/58 63/63/63 64/64/64
f 57/57/57 58/58/58 64/64/64
f 64/64/64 62/62/62 57/57/57
f 64/64/64 63/63/63 62/62/62
f 67/67/67 66/66/66 65/65/65
f 67/67/67 68/68/68 66/66/66
f 69/69/69 67/67/67 65/65/65
f 68/68/68 70/70/70 66/66/66
f 65/65/65 66/66/66 70/70/70
f 68/68/68 71/71/71 70/70/70
f 69/69/69 65/65/65 72/72/72
f 72/72/72 65/65/65 70/70/70
f 71/71/71 69/69/69 72/72/72
f 71/71/71 72/72/72 70/70/70
